P2 2 2 255
0 64
128 255
